<svg width="191" height="48" viewBox="0 0 191 48" fill="none" xmlns="http://www.w3.org/2000/svg">
<rect x="0.894965" y="2.70533" width="189" height="44" rx="22" transform="rotate(-0.5 0.894965 2.70533)" fill="#222325" stroke="#222325"/>
<path d="M33.9791 34.0659C38.8229 34.0237 42.6024 30.7426 43.4561 25.8909L39.1722 25.9283C38.4938 28.3983 36.5195 29.9836 33.9436 30.0061C30.6118 30.0352 28.0969 27.425 28.0661 23.8972C28.0353 20.3693 30.504 17.6876 33.8359 17.6586C36.2998 17.6371 38.2724 19.0759 39.1044 21.3647L43.3323 21.3278C42.3957 16.6878 38.5603 13.5572 33.8004 13.5987C28.0327 13.6491 23.7034 18.111 23.7543 23.9348C23.8048 29.7306 28.2113 34.1163 33.9791 34.0659ZM60.9135 25.7946C60.8754 21.4267 57.6522 17.8707 53.0044 17.9113C48.5245 17.9504 45.1947 21.4236 45.2343 25.9594C45.2739 30.4952 48.6921 33.9375 53.1439 33.8987C56.6718 33.8679 59.5373 31.7428 60.6004 28.4294L56.3166 28.4668C55.7102 29.5641 54.5401 30.2464 53.1121 30.2588C51.1242 30.2762 49.7702 29.1399 49.3882 27.0712L60.8397 26.9713C60.8923 26.5788 60.9169 26.1866 60.9135 25.7946ZM53.0349 21.4112C54.8828 21.395 56.2076 22.3915 56.8117 24.2343L49.476 24.2983C49.9363 22.5022 51.215 21.427 53.0349 21.4112ZM72.3504 17.8265C70.3065 17.8443 68.4941 18.7282 67.3579 20.0821L66.5576 18.213L63.7577 18.2375L63.8896 33.3569L67.9774 33.3212L67.9083 25.3975C67.887 22.9616 69.1618 21.4384 71.2617 21.4201C73.0257 21.4047 73.9031 22.4891 73.9232 24.785L73.9972 33.2687L78.0851 33.233L78.0052 24.0774C77.9717 20.2415 75.7943 17.7964 72.3504 17.8265ZM89.077 29.497C87.5651 29.5101 86.7178 28.6775 86.7051 27.2216L86.6537 21.3418L90.7696 21.3059L90.7408 18.002L86.5689 18.0384L86.5347 14.1186L85.7507 14.1254L79.8422 20.5052L79.85 21.4012L82.5659 21.3775L82.6221 27.8172C82.6512 31.1491 84.7129 33.1752 88.0448 33.1461L90.9567 33.1207L90.9249 29.4808L89.077 29.497ZM101.343 17.8255C99.3829 17.8426 98.0444 18.4703 96.9641 19.8238L96.2198 17.9542L93.6159 17.9769L93.7478 33.0963L97.8357 33.0607L97.7673 25.221C97.7458 22.757 98.6327 21.7133 100.929 21.6932L102.721 21.6776L102.687 17.8137L101.343 17.8255ZM117.009 17.7728L116.602 19.2044C115.276 18.0679 113.562 17.3828 111.602 17.3999C107.066 17.4395 103.708 20.8849 103.748 25.4488C103.788 30.0126 107.205 33.4269 111.741 33.3873C113.673 33.3705 115.347 32.6838 116.625 31.5246L117.001 32.8934L120.193 32.8655L120.061 17.7461L117.009 17.7728ZM112.044 29.5205C109.664 29.5413 107.912 27.7645 107.892 25.4126C107.871 23.0327 109.591 21.2536 111.971 21.2328C114.351 21.2121 116.102 22.9609 116.123 25.3408C116.144 27.7207 114.423 29.4998 112.044 29.5205ZM124.153 32.831L128.241 32.7953L128.061 12.2441L123.974 12.2798L124.153 32.831ZM132.015 15.6257L136.075 15.5903L136.042 11.8104L131.982 11.8459L132.015 15.6257ZM132.164 32.7611L136.252 32.7254L136.12 17.606L132.032 17.6416L132.164 32.7611ZM144.875 28.898L151.164 18.0347L151.159 17.4747L139.288 17.5783L139.32 21.3022L145.144 21.2514L138.772 32.2554L138.776 32.7034L151.291 32.5942L151.259 28.8423L144.875 28.898ZM168.562 24.8551C168.524 20.4873 165.3 16.9313 160.653 16.9719C156.173 17.011 152.843 20.4842 152.883 25.02C152.922 29.5558 156.34 32.9981 160.792 32.9593C164.32 32.9285 167.186 30.8034 168.249 27.49L163.965 27.5274C163.358 28.6247 162.188 29.3069 160.76 29.3194C158.772 29.3367 157.418 28.2005 157.036 26.1318L168.488 26.0318C168.541 25.6394 168.565 25.2471 168.562 24.8551ZM160.683 20.4717C162.531 20.4556 163.856 21.4521 164.46 23.2949L157.124 23.3589C157.585 21.5628 158.863 20.4876 160.683 20.4717Z" fill="#F7F5ED"/>
</svg>
