<svg width="50" height="50" viewBox="0 0 50 50" fill="none" xmlns="http://www.w3.org/2000/svg">
<rect width="50" height="50" rx="8" fill="white" fill-opacity="0.1"/>
<path d="M14 31.8976C16.0008 33.1856 18.3688 33.9308 20.9203 33.9308C29.3 33.9308 34.0359 26.8376 33.7514 20.4712C34.6325 19.8364 35.3942 19.036 36 18.1252C35.1923 18.484 34.3204 18.7324 33.4118 18.8336C34.3388 18.2724 35.0547 17.3892 35.3942 16.3312C34.5223 16.8464 33.5586 17.2236 32.5307 17.426C31.7046 16.5428 30.5298 16 29.2357 16C26.3262 16 24.1786 18.7232 24.8394 21.5568C21.0855 21.3728 17.763 19.5696 15.5328 16.828C14.3488 18.8612 14.9178 21.52 16.9278 22.8724C16.1844 22.8448 15.4869 22.6424 14.8811 22.302C14.8352 24.3996 16.3312 26.3592 18.4973 26.7916C17.864 26.9664 17.1665 27.0032 16.4597 26.8652C17.0288 28.6592 18.6992 29.9748 20.6725 30.0116C18.7818 31.5112 16.3955 32.1828 14 31.8976Z" fill="#E7E7E7"/>
</svg>
