<svg width="149" height="45" viewBox="0 0 149 45" fill="none" xmlns="http://www.w3.org/2000/svg">
<mask id="mask0_136_4770" style="mask-type:alpha" maskUnits="userSpaceOnUse" x="0" y="0" width="45" height="45">
<path fill-rule="evenodd" clip-rule="evenodd" d="M3.93509 33.4985C2.69696 32.7874 1.86261 31.1183 1.77821 29.2255L1.77115 28.9081V26.2503C1.76653 25.7446 1.82959 25.2279 1.96884 24.7278C2.10594 24.2355 2.30902 23.7932 2.56284 23.423C2.77938 23.1072 3.03285 22.8438 3.31378 22.6465L3.50065 22.5273L3.98563 22.2473L3.94861 22.2248C3.45787 21.9349 3.03117 21.4949 2.68999 20.9505C2.18031 20.1372 1.86151 19.0908 1.80527 17.9639L1.79645 17.6484L1.7951 15.947C1.73543 15.2997 1.78709 14.6223 1.96748 13.9723C2.23577 13.0057 2.75807 12.2321 3.41831 11.8125L3.60171 11.707L7.84978 9.51052C8.9158 8.95933 10.0294 8.67134 11.1445 8.64546H11.1446C10.0295 8.67136 8.91603 8.95935 7.85005 9.51052L3.60198 11.707L3.41858 11.8125C2.75834 12.2321 2.23604 13.0057 1.96775 13.9723C1.78736 14.6223 1.7357 15.2997 1.79537 15.947L1.79673 17.6484L1.80554 17.9639C1.89942 19.8452 2.72501 21.5018 3.94888 22.2248L3.9859 22.2473L3.50092 22.5273L3.31406 22.6465C2.70382 23.0751 2.22318 23.8154 1.96911 24.7278C1.82987 25.2279 1.7668 25.7446 1.77142 26.2503V28.9081L1.77849 29.2255C1.86288 31.1183 2.69723 32.7874 3.93537 33.4985L18.641 41.9449L18.9637 42.1213C19.8901 42.6025 20.8525 42.8872 21.8216 42.9754C20.8525 42.8872 19.8899 42.6026 18.9634 42.1213L18.6407 41.9449L3.93509 33.4985ZM32.9511 9.23313C32.3769 9.296 31.8141 9.41396 31.2758 9.58896C31.2758 9.58899 31.2758 9.58902 31.2758 9.58905C31.8141 9.41402 32.3768 9.29602 32.9511 9.23313ZM21.601 2.50883C20.4876 2.56551 19.402 2.82278 18.4352 3.29435L15.7181 4.61972L15.5333 4.72019C14.8677 5.12029 14.3383 5.86459 14.0619 6.79922C14.016 6.95445 13.978 7.11142 13.9475 7.26927C13.827 7.89404 13.8254 8.53267 13.9265 9.13274C13.9266 9.13278 13.9267 9.13282 13.9268 9.13285C13.8001 8.38113 13.8346 7.5689 14.0622 6.79922C14.3386 5.86458 14.868 5.12028 15.5336 4.72018L15.7184 4.61971L18.4355 3.29435C19.4021 2.82281 20.4877 2.56554 21.601 2.50883ZM44.9252 16.2828C45.0598 14.2932 44.3378 12.0193 42.5649 10.8433L40.1275 9.22637L39.78 9.0068L39.7635 8.99681C37.7337 7.77523 35.2401 7.22593 32.8677 7.46121C32.5494 6.15135 31.8416 4.92506 30.6906 4.16152L28.2532 2.54464L27.9075 2.32613L27.891 2.31619C24.8901 0.509264 20.831 0.155317 17.6588 1.7027L14.9066 3.0452L14.6537 3.18265L14.6209 3.20241C13.4893 3.88267 12.7339 5.04503 12.3637 6.29704C12.3029 6.50283 12.2523 6.71029 12.2116 6.91845C11.9822 6.8951 11.7519 6.88063 11.5211 6.87514L11.5004 6.87465L11.1242 6.87454L11.1034 6.87502C9.70572 6.90746 8.32924 7.26898 7.03641 7.93745L2.75299 10.1522L2.50137 10.297L2.46852 10.3179C1.3469 11.0306 0.613888 12.2275 0.261066 13.4987C0.0281497 14.338 -0.0418779 15.2007 0.024245 16.0236L0.0255593 17.6739L0.0355877 18.0328L0.0365556 18.0522C0.108066 19.4851 0.537582 20.9474 1.33186 22.111C0.833492 22.7352 0.478132 23.4796 0.262824 24.2528C0.0773261 24.919 -0.00502032 25.5987 0.000236135 26.2578V28.9278L0.00817656 29.2846L0.00905663 29.3044C0.110069 31.5698 1.11508 33.9211 3.05308 35.0342L17.7749 43.4898L18.1304 43.6842L18.1471 43.6929C21.0663 45.2091 24.3217 45.1296 27.1937 43.4784L41.9292 35.007L42.1783 34.8553L42.1974 34.843C43.8996 33.7458 44.935 31.9514 44.9605 29.5117L44.9606 29.5023L44.9602 26.9571C45.0785 25.8178 44.9276 24.6628 44.5377 23.6482C44.3197 23.0811 44.0113 22.5205 43.6025 22.0293C44.2277 21.4428 44.6345 20.7837 44.8365 20.0005C45.019 19.2926 45.0052 18.5499 44.9945 17.9775L44.9927 17.8792C44.9879 17.6012 44.9832 17.327 44.9868 17.0292L44.988 16.9331L44.9252 16.2828Z" fill="#FC7557"/>
</mask>
<g mask="url(#mask0_136_4770)">
<mask id="mask1_136_4770" style="mask-type:alpha" maskUnits="userSpaceOnUse" x="-10" y="-6" width="62" height="58">
<path d="M9.44082 -0.678534C12.611 -2.33566 19.2106 -5.6499 20.2481 -5.6499L30.407 -1.75927L33.0008 4.72513L50.5086 9.91264L51.1571 16.1809L44.8888 20.2877L51.1571 26.5559L50.5086 37.3632L20.2481 51.1966L-6.98631 37.3632L-9.36392 27.4205L-3.31182 21.5845L-9.36392 14.884L-6.98631 7.96732L9.44082 4.72513V-0.678534Z" fill="#C4C4C4" stroke="black" stroke-width="0.569557"/>
</mask>
<g mask="url(#mask1_136_4770)">
<rect width="69.6025" height="21.9852" transform="matrix(0.998582 -0.0532331 0.0514538 0.998675 -13.9885 -2.23682)" fill="#7F9DFF"/>
<rect width="69.6025" height="15.7062" transform="matrix(0.999088 -0.0427025 0.0444825 0.99901 -13.8299 16.7051)" fill="#FFC73A"/>
<rect width="69.6025" height="20.5906" transform="matrix(0.998582 -0.0532331 0.0514538 0.998675 -14.1674 32.4111)" fill="#FC7557"/>
</g>
</g>
<path fill-rule="evenodd" clip-rule="evenodd" d="M26.9778 3.83337L27.2907 4.03118L29.7119 5.6373C30.8218 6.37358 31.4191 7.99003 31.2757 9.5891C33.6988 8.80136 36.6156 9.16914 38.8505 10.5142L39.1651 10.713L41.5862 12.3191C42.7023 13.0594 43.3001 14.6897 43.1477 16.2973L43.2163 17.0078C43.2123 17.3353 43.2175 17.6342 43.2223 17.9101C43.2452 19.2187 43.259 20.0093 42.2408 20.8717C41.9081 21.1535 41.3538 21.5284 40.5779 21.9964L41.4997 22.5274C42.7257 23.2319 43.4042 25.062 43.1895 26.8593L43.19 29.4932C43.1703 31.3763 42.4085 32.6002 41.2382 33.3546L41.0275 33.4829L26.3114 41.9432C23.9566 43.2969 21.3414 43.3564 18.9637 42.1214L18.641 41.945L3.93536 33.4986C2.69723 32.7874 1.86287 31.1183 1.77848 29.2255L1.77142 28.9081V26.2503C1.76679 25.7447 1.82986 25.228 1.9691 24.7279C2.22317 23.8154 2.70381 23.0752 3.31405 22.6465L3.50091 22.5274L3.9859 22.2473L3.94887 22.2249C2.72501 21.5019 1.89942 19.8452 1.80553 17.964L1.79672 17.6485L1.79536 15.9471C1.7357 15.2998 1.78735 14.6224 1.96774 13.9724C2.23603 13.0057 2.75834 12.2321 3.41857 11.8126L3.60197 11.7071L7.85004 9.51057C8.91607 8.95938 10.0296 8.67139 11.1448 8.64551L11.4793 8.64561C12.303 8.6652 13.125 8.82778 13.9267 9.13291C13.8001 8.38119 13.8346 7.56895 14.0622 6.79927C14.3386 5.86464 14.868 5.12034 15.5336 4.72024L15.7184 4.61977L18.4355 3.2944C21.0135 2.03687 24.4367 2.30333 26.9778 3.83337Z" fill="white"/>
<path fill-rule="evenodd" clip-rule="evenodd" d="M26.9773 3.83263L27.2902 4.03045L29.7114 5.63657C30.8213 6.37284 31.4186 7.9893 31.2752 9.58837C33.6983 8.80063 36.6151 9.1684 38.85 10.5134L39.1645 10.7122L41.5857 12.3183C42.7018 13.0587 43.2996 14.6889 43.1472 16.2966L43.2158 17.007C43.2118 17.3345 43.217 17.6335 43.2218 17.9094C43.2446 19.218 43.2584 20.0086 42.2403 20.871C41.9075 21.1528 41.3532 21.5277 40.5774 21.9957L41.4991 22.5267C42.7252 23.2312 43.4037 25.0613 43.189 26.8585L43.1895 29.4924C43.1697 31.3756 42.408 32.5995 41.2376 33.3539L41.0269 33.4822L26.3109 41.9424C23.9561 43.2962 21.3409 43.3556 18.9632 42.1207L18.6405 41.9442L3.93484 33.4978C2.69671 32.7867 1.86236 31.1176 1.77796 29.2248L1.7709 28.9074V26.2496C1.76628 25.744 1.82934 25.2272 1.96858 24.7272C2.22266 23.8147 2.7033 23.0745 3.31353 22.6458L3.50039 22.5267L3.98538 22.2466L3.94835 22.2242C2.72449 21.5011 1.8989 19.8445 1.80502 17.9632L1.7962 17.6477L1.79485 15.9463C1.73518 15.2991 1.78683 14.6216 1.96723 13.9717C2.23551 13.005 2.75782 12.2314 3.41806 11.8119L3.60145 11.7063L7.84952 9.50984C8.91555 8.95865 10.0291 8.67065 11.1442 8.64477L11.4788 8.64487C12.3024 8.66447 13.1244 8.82705 13.9262 9.13217C13.7996 8.38045 13.8341 7.56822 14.0617 6.79854C14.3381 5.8639 14.8675 5.1196 15.533 4.7195L15.7178 4.61903L18.4349 3.29367C21.013 2.03614 24.4362 2.3026 26.9773 3.83263ZM37.7418 24.0947L26.3109 30.6669C23.8491 32.0822 21.1026 32.0829 18.6405 30.6687L7.25574 24.1298L4.83228 25.6059C4.60037 25.7393 4.41662 26.0037 4.32385 26.3372C4.13666 27.0104 4.36429 27.7744 4.83228 28.0437L17.4921 35.8086C20.5383 37.5613 23.9365 37.5613 26.9827 35.8086L40.2322 27.9773C40.4641 27.8439 40.6479 27.5796 40.7406 27.246C40.9278 26.5728 40.7002 25.8088 40.2322 25.5395L37.7418 24.0947ZM14.5887 12.1847C12.7674 11.1084 10.7418 11.0585 8.89724 12.0447L4.8136 14.2278C4.57437 14.3557 4.38372 14.629 4.28994 14.9784C4.10903 15.6523 4.33219 16.4154 4.78839 16.6827L19.6974 25.4175C21.5303 26.4913 23.5671 26.527 25.4167 25.5176L29.3496 23.3712C29.5855 23.2425 29.7734 22.9722 29.8668 22.6273C30.049 21.9541 29.8274 21.1901 29.3717 20.9208L14.5887 12.1847ZM36.4289 12.834C34.8409 11.9006 33.0748 11.8574 31.4665 12.7125L27.9059 14.6057C27.6973 14.7166 27.5311 14.9535 27.4493 15.2565C27.2916 15.8409 27.4861 16.5026 27.8839 16.7344L31.4421 18.6982C33.0403 19.6294 34.8162 19.6603 36.4289 18.785L39.858 16.9238C40.0637 16.8122 40.2275 16.5778 40.3089 16.2787C40.4678 15.6949 40.2746 15.0324 39.8773 14.7989L36.4289 12.834ZM25.1412 5.51139C23.5532 4.57805 21.7871 4.53484 20.1788 5.38997L16.6182 7.2831C16.4096 7.39401 16.2434 7.63095 16.1616 7.93392C16.0039 8.51837 16.1985 9.18004 16.5962 9.41181L19.9304 11.5884C21.5285 12.5196 23.3044 12.5505 24.9171 11.6752L28.3463 9.81394C28.5519 9.70232 28.7158 9.46793 28.7972 9.16886C28.9561 8.5851 28.7628 7.92258 28.3656 7.68908L25.1412 5.51139Z" fill="#222325"/>
<path fill-rule="evenodd" clip-rule="evenodd" d="M102.279 18.7998C102.279 18.5413 102.072 18.3318 101.817 18.3318H97.3601C97.1051 18.3318 96.8983 18.5413 96.8983 18.7998V20.3286C95.5647 18.8105 93.7136 18.0515 91.3451 18.0515C89.5976 18.0515 88.0109 18.4485 86.5853 19.2426C85.1826 20.0367 84.0789 21.1694 83.274 22.6407C82.4692 24.112 82.0668 25.8169 82.0668 27.7554C82.0668 29.6938 82.4692 31.3987 83.274 32.8701C84.0789 34.3414 85.1826 35.4741 86.5853 36.2682C88.0109 37.0622 89.5976 37.4592 91.3451 37.4592C93.8746 37.4592 95.8061 36.6418 97.1398 35.007V36.7109C97.1398 36.9694 97.3465 37.179 97.6015 37.179H101.817C102.072 37.179 102.279 36.9694 102.279 36.7109V18.7998ZM95.6566 31.5739C94.7598 32.5081 93.6331 32.9752 92.2764 32.9752C90.8967 32.9752 89.7585 32.5081 88.8617 31.5739C87.9649 30.6163 87.5165 29.3435 87.5165 27.7554C87.5165 26.1673 87.9649 24.9061 88.8617 23.9719C89.7585 23.0144 90.8967 22.5356 92.2764 22.5356C93.6331 22.5356 94.7598 23.0144 95.6566 23.9719C96.5534 24.9061 97.0018 26.1673 97.0018 27.7554C97.0018 29.3435 96.5534 30.6163 95.6566 31.5739ZM116.558 26.6265C116.558 24.2464 117.254 22.2717 118.646 20.7023C120.064 19.133 122.125 18.3484 124.828 18.3484C125.672 18.3484 126.465 18.4287 127.206 18.5892C127.39 18.6291 127.518 18.7941 127.518 18.9823V23.0867C127.518 23.3248 127.316 23.513 127.078 23.5038C126.802 23.4932 126.494 23.4879 126.153 23.4879C124.734 23.4879 123.704 23.7887 123.062 24.3903C122.419 24.9918 122.098 25.8811 122.098 27.0581V36.8087C122.098 37.0356 121.914 37.2195 121.687 37.2195H116.969C116.742 37.2195 116.558 37.0356 116.558 36.8087V26.6265ZM112.414 36.8087C112.414 37.0356 112.23 37.2195 112.003 37.2195H107.284C107.058 37.2195 106.874 37.0356 106.874 36.8087V19.1907C106.874 18.9638 107.058 18.7799 107.284 18.7799H112.003C112.23 18.7799 112.414 18.9638 112.414 19.1907V36.8087ZM66.3102 26.4974C66.4553 26.3972 66.5929 26.3061 66.7239 26.2192C66.9905 26.0425 67.2302 25.8837 67.4519 25.7031L67.7283 25.477C68.4113 24.9191 69.0951 24.3603 69.7367 23.7578C71.1283 22.4494 72.2998 20.9604 73.0171 19.1827C73.2526 18.5991 73.357 17.9592 73.4602 17.3267C73.4789 17.212 73.4976 17.097 73.517 16.9832C73.6064 16.4597 73.621 16.4055 74.1711 16.4055C74.5375 16.4055 74.904 16.406 75.2705 16.4066C76.26 16.408 77.2502 16.4094 78.2407 16.4005C78.5663 16.4005 78.6971 16.4972 78.6862 16.8337C78.6026 19.4592 77.926 21.8883 76.2778 23.9889C75.5477 24.937 74.6429 25.7385 73.6115 26.3508C73.1755 26.605 73.19 26.6577 73.5098 27.0513C74.0349 27.6977 74.5526 28.3483 75.0702 28.9988C75.362 29.3654 75.6541 29.7326 75.9472 30.0985C77.25 31.7256 78.5539 33.3517 79.8591 34.9769C80.2269 35.4372 80.5883 35.9026 80.965 36.3876C81.1561 36.6338 81.3512 36.885 81.5531 37.1432C81.4124 37.1759 81.2697 37.1986 81.1258 37.2111L80.0795 37.2109C78.4062 37.2103 76.7319 37.2098 75.0591 37.2212C74.7314 37.2212 74.541 37.0609 74.3651 36.8399C74.0404 36.4324 73.7168 36.0236 73.3933 35.6149C73.0067 35.1265 72.6195 34.6373 72.2308 34.1509C70.7875 32.3432 69.3423 30.538 67.8952 28.7352C67.4359 28.1618 66.9771 27.5878 66.5188 27.013C66.4762 26.9527 66.4383 26.8892 66.4054 26.8231L66.2957 26.8708C66.2922 26.9164 66.2879 26.962 66.2836 27.0076C66.2743 27.1064 66.2649 27.2052 66.2644 27.304V36.6529C66.2644 37.2067 66.2644 37.2075 65.7005 37.2082H60.8315C60.3831 37.2082 60.3555 37.1822 60.3555 36.7395V10.3537C60.3555 9.89732 60.4129 9.83883 60.8845 9.8381C62.5075 9.83522 64.1305 9.83522 65.7535 9.8381C66.2492 9.8381 66.2622 9.85399 66.2622 10.3436V25.8642C66.2648 25.9706 66.2742 26.075 66.2857 26.2026C66.2934 26.2879 66.302 26.3837 66.3102 26.4974ZM109.554 16.5926C108.644 16.5926 107.85 16.2874 107.174 15.6772C106.523 15.0669 106.198 14.3295 106.198 13.465C106.198 12.575 106.523 11.8249 107.174 11.2147C107.85 10.579 108.644 10.2612 109.554 10.2612C110.465 10.2612 111.246 10.579 111.896 11.2147C112.573 11.8249 112.911 12.575 112.911 13.465C112.911 14.3295 112.573 15.0669 111.896 15.6772C111.246 16.2874 110.465 16.5926 109.554 16.5926Z" fill="#FDFDFD"/>
<path d="M132.306 20.7409C130.727 22.284 129.938 24.3372 129.938 26.9005V36.808C129.938 37.0348 130.121 37.2188 130.348 37.2188H135.067C135.294 37.2188 135.478 37.0348 135.478 36.808V27.2928C135.478 25.985 135.772 24.965 136.361 24.2326C136.95 23.4741 137.819 23.0818 138.97 23.0556C140.121 23.0818 140.991 23.4741 141.58 24.2326C142.168 24.965 142.463 25.985 142.463 27.2928V36.808C142.463 37.0348 142.647 37.2188 142.874 37.2188H147.592C147.819 37.2188 148.003 37.0348 148.003 36.808V26.9005C148.003 24.3372 147.213 22.284 145.634 20.7409C144.055 19.1716 141.834 18.3738 138.97 18.3477C136.107 18.3738 133.885 19.1716 132.306 20.7409Z" fill="#FDFDFD"/>
</svg>
