<svg width="50" height="50" viewBox="0 0 50 50" fill="none" xmlns="http://www.w3.org/2000/svg">
<rect width="50" height="50" rx="8" fill="white" fill-opacity="0.1"/>
<path d="M15.7274 19.672C15.7559 19.3936 15.6483 19.1185 15.4374 18.9312L13.2899 16.381V16H19.958L25.112 27.1429L29.6433 16H36V16.381L34.1639 18.1164C34.0056 18.2353 33.927 18.4308 33.9599 18.6243V31.3757C33.927 31.5692 34.0056 31.7647 34.1639 31.8836L35.957 33.619V34H26.9374V33.619L28.7951 31.8413C28.9776 31.6614 28.9776 31.6085 28.9776 31.3333V21.0265L23.8128 33.9577H23.1148L17.1018 21.0265V29.6931C17.0516 30.0575 17.1744 30.4243 17.4346 30.6878L19.8506 33.5767V33.9577H13V33.5767L15.416 30.6878C15.6743 30.4239 15.7899 30.0546 15.7274 29.6931V19.672Z" fill="#E7E7E7"/>
</svg>
