<svg width="50" height="50" viewBox="0 0 50 50" fill="none" xmlns="http://www.w3.org/2000/svg">
<rect width="50" height="50" rx="8" fill="white" fill-opacity="0.1"/>
<path d="M19.2307 35.7978H14.6921V21.3812H19.2307V35.7978ZM16.9583 19.3834C16.4435 19.3805 15.941 19.2251 15.5144 18.937C15.0878 18.6488 14.7561 18.2407 14.5612 17.7642C14.3662 17.2877 14.3169 16.7641 14.4192 16.2595C14.5216 15.755 14.7711 15.2921 15.1363 14.9292C15.5015 14.5663 15.9661 14.3198 16.4713 14.2206C16.9765 14.1215 17.4997 14.1743 17.975 14.3722C18.4502 14.5702 18.8562 14.9045 19.1416 15.333C19.427 15.7614 19.5791 16.2649 19.5787 16.7797C19.5836 17.1244 19.519 17.4665 19.3888 17.7857C19.2586 18.1049 19.0655 18.3946 18.821 18.6376C18.5764 18.8805 18.2855 19.0718 17.9655 19.1999C17.6455 19.3281 17.3029 19.3904 16.9583 19.3834ZM35.9596 35.8104H31.4231V27.9344C31.4231 25.6116 30.4357 24.8947 29.1612 24.8947C27.8153 24.8947 26.4946 25.9093 26.4946 27.9931V35.8104H21.956V21.3917H26.3206V23.3895H26.3793C26.8174 22.5027 28.352 20.9871 30.6936 20.9871C33.226 20.9871 35.9617 22.4902 35.9617 26.8925L35.9596 35.8104Z" fill="#FDFDFD"/>
</svg>
