<svg width="191" height="48" viewBox="0 0 191 48" fill="none" xmlns="http://www.w3.org/2000/svg">
<rect x="0.995709" y="1.10591" width="189" height="44" rx="22" transform="rotate(0.5 0.995709 1.10591)" fill="#222325" stroke="#222325"/>
<path d="M42.1933 13.0655L34.6615 12.9997L34.4905 32.599L38.7183 32.6359L38.7716 26.5321L42.0755 26.5609C46.0233 26.5954 49.0164 23.7374 49.0501 19.8736C49.0838 16.0097 46.1131 13.0997 42.1933 13.0655ZM41.9137 22.6394L38.8058 22.6123L38.8549 16.9845L41.9628 17.0116C43.6427 17.0263 44.7804 18.2122 44.7663 19.8362C44.7521 21.4601 43.5936 22.654 41.9137 22.6394ZM59.4882 17.6126C57.5283 17.5955 56.1789 18.1997 55.0753 19.5341L54.3637 17.6518L51.7598 17.6291L51.6278 32.7485L55.7157 32.7842L55.7841 24.9445C55.8056 22.4806 56.7106 21.4525 59.0065 21.4725L60.7984 21.4881L60.8321 17.6243L59.4882 17.6126ZM63.1793 15.7127L67.2391 15.7481L67.2721 11.9683L63.2122 11.9328L63.1793 15.7127ZM63.0297 32.848L67.1176 32.8837L67.2495 17.7643L63.1617 17.7286L63.0297 32.848ZM78.205 33.4285C82.8808 33.4693 86.4107 30.056 86.4505 25.4921C86.4904 20.9283 83.0203 17.4819 78.3445 17.4411C73.6687 17.4003 70.139 20.7856 70.0991 25.3495C70.0593 29.9133 73.5291 33.3877 78.205 33.4285ZM78.2387 29.5646C75.8868 29.5441 74.2215 27.8495 74.243 25.3856C74.2642 22.9497 75.9591 21.2564 78.311 21.277C80.6629 21.2975 82.3279 23.0201 82.3067 25.456C82.2852 27.9199 80.5906 29.5852 78.2387 29.5646ZM97.1938 17.9416C95.2339 17.9245 93.8845 18.5288 92.7809 19.8632L92.0693 17.9809L89.4654 17.9582L89.3334 33.0776L93.4213 33.1133L93.4897 25.2736C93.5112 22.8097 94.4162 21.7815 96.7121 21.8016L98.504 21.8172L98.5377 17.9533L97.1938 17.9416ZM100.885 16.0417L104.945 16.0772L104.978 12.2973L100.918 12.2619L100.885 16.0417ZM100.735 33.1771L104.823 33.2128L104.955 18.0933L100.867 18.0577L100.735 33.1771ZM116.17 29.6717C114.658 29.6585 113.826 28.8112 113.838 27.3552L113.89 21.4754L118.005 21.5114L118.034 18.2075L113.862 18.1711L113.897 14.2512L113.113 14.2444L107.094 20.5201L107.086 21.4161L109.802 21.4398L109.746 27.8795C109.717 31.2114 111.743 33.2732 115.074 33.3022L117.986 33.3276L118.018 29.6878L116.17 29.6717ZM120.927 16.2167L124.987 16.2521L125.02 12.4722L120.96 12.4368L120.927 16.2167ZM120.778 33.352L124.865 33.3877L124.997 18.2683L120.909 18.2326L120.778 33.352ZM133.553 29.7114L140.032 18.9595L140.036 18.3995L128.165 18.2959L128.132 22.0198L133.956 22.0706L127.393 32.9617L127.389 33.4097L139.905 33.5189L139.937 29.7671L133.553 29.7114ZM157.307 26.0825C157.345 21.7147 154.185 18.103 149.537 18.0624C145.057 18.0233 141.667 21.4378 141.628 25.9737C141.588 30.5095 144.946 34.0109 149.397 34.0498C152.925 34.0806 155.828 32.0058 156.948 28.7115L152.665 28.6741C152.039 29.7607 150.857 30.4224 149.429 30.4099C147.441 30.3926 146.107 29.2329 145.761 27.1578L157.213 27.2577C157.272 26.8662 157.304 26.4745 157.307 26.0825ZM149.506 21.5623C151.354 21.5784 152.662 22.5978 153.233 24.4509L145.898 24.3869C146.389 22.5991 147.687 21.5464 149.506 21.5623Z" fill="#F7F5ED"/>
</svg>
