<svg width="192" height="48" viewBox="0 0 192 48" fill="none" xmlns="http://www.w3.org/2000/svg">
<rect x="1.31182" y="2.98976" width="189" height="44" rx="22" transform="rotate(-0.5 1.31182 2.98976)" fill="#222325" stroke="#222325"/>
<path d="M43.8588 14.2174L36.3271 14.2831L36.4981 33.8823L40.7259 33.8454L40.6727 27.7417L43.9765 27.7128C47.9244 27.6784 50.8671 24.7686 50.8334 20.9047C50.7997 17.0409 47.7786 14.1831 43.8588 14.2174ZM43.7463 23.7947L40.6385 23.8218L40.5893 18.194L43.6972 18.1669C45.3772 18.1523 46.5354 19.3182 46.5496 20.9421C46.5637 22.5661 45.4263 23.78 43.7463 23.7947ZM61.2304 18.4619C59.2705 18.479 57.9319 19.1067 56.8517 20.4602L56.1074 18.5906L53.5035 18.6134L53.6354 33.7328L57.7233 33.6971L57.6548 25.8574C57.6333 23.3935 58.5203 22.3497 60.8162 22.3297L62.6081 22.314L62.5744 18.4502L61.2304 18.4619ZM71.8808 34.0216C76.5567 33.9808 80.0265 30.5064 79.9867 25.9425C79.9468 21.3787 76.4172 17.9934 71.7413 18.0342C67.0655 18.075 63.5954 21.5214 63.6353 26.0852C63.6751 30.6491 67.205 34.0624 71.8808 34.0216ZM71.8471 30.1577C69.4952 30.1782 67.8006 28.513 67.7791 26.0491C67.7579 23.6132 69.4229 21.8906 71.7748 21.87C74.1267 21.8495 75.8216 23.5428 75.8428 25.9787C75.8643 28.4426 74.199 30.1372 71.8471 30.1577ZM95.0771 18.2506L94.4183 19.7684C93.0918 18.5759 91.3496 17.8631 89.3896 17.8802C85.1618 17.9171 81.8872 21.3058 81.9241 25.5336C81.9613 29.7894 85.2942 33.0925 89.5221 33.0556C91.146 33.0414 92.6255 32.5245 93.8222 31.674L93.8271 32.234C93.8464 34.4459 92.1501 35.8048 90.0782 35.8228C88.5663 35.836 86.9642 35.15 86.4763 33.7822L82.4164 33.8176C83.1465 37.2554 86.0767 39.3299 90.1645 39.2942C94.9523 39.2524 97.8671 36.3429 97.8258 31.6111L97.7092 18.2556L95.0771 18.2506ZM89.966 29.3836C87.7261 29.4031 86.0878 27.7654 86.0682 25.5254C86.0484 23.2575 87.6579 21.5914 89.8979 21.5719C92.1378 21.5523 93.7761 23.1901 93.7959 25.458C93.8155 27.6979 92.2059 29.364 89.966 29.3836ZM109.381 18.0417C107.421 18.0588 106.082 18.6865 105.002 20.04L104.258 18.1704L101.654 18.1932L101.786 33.3126L105.874 33.2769L105.805 25.4372C105.784 22.9733 106.671 21.9295 108.967 21.9095L110.759 21.8938L110.725 18.03L109.381 18.0417ZM127.465 25.5002C127.427 21.1324 124.204 17.5764 119.556 17.6169C115.076 17.656 111.746 21.1292 111.786 25.665C111.825 30.2009 115.244 33.6432 119.695 33.6043C123.223 33.5735 126.089 31.4484 127.152 28.135L122.868 28.1724C122.262 29.2697 121.092 29.952 119.664 29.9644C117.676 29.9818 116.322 28.8456 115.94 26.7768L127.391 26.6769C127.444 26.2844 127.468 25.8922 127.465 25.5002ZM119.586 21.1168C121.434 21.1007 122.759 22.0971 123.363 23.9399L116.027 24.0039C116.488 22.2079 117.766 21.1327 119.586 21.1168ZM135.793 33.4638C139.629 33.4303 142.131 31.3924 142.104 28.3126C142.072 24.6167 138.904 24.1403 136.436 23.7138C134.865 23.4475 133.575 23.2068 133.566 22.1988C133.559 21.3309 134.31 20.7643 135.57 20.7533C136.998 20.7408 137.843 21.3215 137.881 22.5252L141.773 22.4912C141.719 19.4676 139.293 17.4447 135.653 17.4764C132.013 17.5082 129.595 19.5174 129.62 22.3733C129.651 25.9291 132.736 26.5462 135.148 26.9452C136.746 27.1833 138.065 27.4798 138.074 28.5157C138.082 29.5237 137.051 30.0647 135.931 30.0745C134.475 30.0872 133.433 29.4243 133.394 28.0806L129.418 28.1153C129.446 31.3351 132.013 33.4968 135.793 33.4638ZM150.503 33.3354C154.339 33.302 156.841 31.2641 156.814 28.1842C156.782 24.4883 153.614 24.0119 151.146 23.5855C149.576 23.3192 148.286 23.0784 148.277 22.0704C148.269 21.2025 149.02 20.6359 150.28 20.6249C151.708 20.6124 152.553 21.1931 152.592 22.3968L156.484 22.3628C156.429 19.3392 154.004 17.3163 150.364 17.3481C146.724 17.3798 144.305 19.389 144.33 22.2449C144.361 25.8008 147.447 26.4179 149.858 26.8168C151.456 27.0549 152.775 27.3514 152.784 28.3874C152.793 29.3953 151.762 29.9363 150.642 29.9461C149.186 29.9588 148.144 29.2959 148.104 27.9522L144.128 27.9869C144.156 31.2068 146.723 33.3684 150.503 33.3354Z" fill="#F7F5ED"/>
</svg>
