<svg width="259" height="94" viewBox="0 0 259 94" fill="none" xmlns="http://www.w3.org/2000/svg">
<path d="M0.5 32.3H9V48.3C9 64.6 14.2 70 30.1 70H32.1V57.2C23.7 57.2 22.7 56 22.7 48.2V32.3H32.1V20H22.7V0.799997L9 8.3V20H0.5V32.3ZM39.0977 70H52.7977V46.4C52.7977 37.1 55.9977 33.3 63.2977 33.3H71.9977V20H66.4977C59.6977 20 55.1977 23 52.6977 28.2V20H39.0977V70ZM95.8719 71C101.672 71 106.072 68.4 108.972 64.2V70H122.572V20H108.872V47.6C108.872 55.7 105.472 59.3 100.272 59.3C94.4719 59.3 91.5719 55.7 91.5719 48.7V20H77.6719V50.5C77.6719 63.7 84.3719 71 95.8719 71ZM147.527 71C159.827 71 166.127 63.2 166.127 54.5C166.127 45.5 160.127 41.9 154.127 39.8C148.027 37.7 142.027 37.2 142.027 34.3C142.027 32.2 143.627 30.3 147.027 30.3C150.427 30.3 152.727 31.7 152.727 35.9V36.1H166.027C166.027 24.6 157.927 19 146.627 19C135.227 19 128.327 25.5 128.327 34.2C128.327 43.4 134.527 47 140.627 49C146.827 51.1 152.927 51.6 152.927 54.7C152.927 57.5 151.427 59.1 147.527 59.1C144.227 59.1 141.427 57.6 141.427 53.5V53.1H127.627C127.627 65.1 134.327 71 147.527 71ZM169.152 32.3H177.652V48.3C177.652 64.6 182.852 70 198.752 70H200.752V57.2C192.352 57.2 191.352 56 191.352 48.2V32.3H200.752V20H191.352V0.799997L177.652 8.3V20H169.152V32.3ZM215.638 93.1H229.338L258.338 20H244.138L232.638 50.8L220.338 20H205.938L225.838 67.8L215.638 93.1Z" fill="#55E1C1"/>
</svg>
